<?xml version="1.0" encoding="UTF-8"?>
<!DOCTYPE svg PUBLIC "-//W3C//DTD SVG 1.1//EN" "http://www.w3.org/Graphics/SVG/1.1/DTD/svg11.dtd">
<!-- Creator: CorelDRAW 2021 (64 Bit Versão de avaliação) -->
<svg xmlns="http://www.w3.org/2000/svg" xml:space="preserve" width="176.389mm" height="384.881mm" version="1.1" style="shape-rendering:geometricPrecision; text-rendering:geometricPrecision; image-rendering:optimizeQuality; fill-rule:evenodd; clip-rule:evenodd"
viewBox="0 0 48508.4 105845.3"
 xmlns:xlink="http://www.w3.org/1999/xlink"
 xmlns:xodm="http://www.corel.com/coreldraw/odm/2003">
 <defs>
  <style type="text/css">
   <![CDATA[
    .fil0 {fill:black}
   ]]>
  </style>
 </defs>
 <g id="Camada_x0020_1">
  <metadata id="CorelCorpID_0Corel-Layer"/>
  <g id="_1489274205040">
   <path class="fil0" d="M26388.5 46956.1c-1177.2,0 -788.9,-2752.4 -651.7,-3562.2 219.1,-1293.5 511,-2543.2 907.3,-3749.5 590.4,-1796.9 1330.3,-4152.1 2472.3,-5677.1 262.2,-350.2 389.1,-345.6 570.7,-593.5 -2213.8,0 -2839.9,421.3 -2904.4,-3304.7 -12.7,-734.7 -542.9,-1162.8 -1142.6,-1961.9l-993.2 -1335.2c-180.5,-245.6 -167.3,-297.4 -489.7,-383.4 -81.3,304.5 -406.8,625.3 -581.5,873.8l-1304.9 1799.6c-379.3,484.2 -358.3,396.5 -346.3,1206 18,1213.2 -39.6,3088.3 -1447.7,3112.1 -511.4,8.6 -1043.9,-6.2 -1558.5,-6.2 408.1,556.9 375.6,-122.3 1618.1,2359.6 623.2,1244.8 1749.8,4612.8 2045.1,6007.3 268.3,1267.1 783.3,3276 332.8,4651.7 -916.8,2799.7 -7489.6,-5883.2 -8323.5,-7138.8 -1429.9,-2153.1 -1638.9,-2574.6 -2883.5,-4780.8l-800.5 -1722c-265,-638.3 -479.8,-1157.1 -734,-1788.4 -1193.1,-2962 -2217.3,-7427.6 -2217.3,-10588.9 0,-2574.6 -55.9,-3420.6 885.6,-5905.6 572.1,-1510.2 1544,-2939.2 2509.2,-4184.9 959.7,-1238.6 2698.2,-2742.1 4139.1,-3525.2 2887.5,-1569.4 5444.9,-2289.1 9058.1,-2297.4 3108,-7.2 6334.6,975 8919,2529.2 3072.3,1847.6 5713,5245.2 6734.2,8691.5 790.9,2669.2 614.5,5507.6 158.9,8185.6 -1133,6660.3 -4033.8,12976.2 -8373.9,18111.7 -116.1,137.3 -166.3,173.1 -274.7,307.4 -768.4,952.1 -1345.7,1518.4 -2242.1,2414.8 -647.1,647.1 -1977.2,2255.6 -3080.3,2255.6zm-23187 -28911c0,2700.7 118.5,5060.1 756.4,7587 642.7,2546.1 1403.2,4710.7 2361.6,7049 881.6,2151.1 2044.6,4307.5 3230.1,6277.6 2302.8,3826.6 5014.9,7572.8 8180.2,10738.1 1061.6,1061.6 5081.9,4535.5 1188.4,4535.5 -1015.3,0 -2566.1,-298.2 -3454,-523.7l-3180.1 -894.6c-1393.7,-460.5 -3565.4,-1243.7 -4761,-2224.2 -337,-276.4 -209.4,-309.2 -538,-529.2 0,2325.2 482.2,2766.2 -3202.2,2916.2 -521.5,21.2 -661.5,66.8 -1011.9,338.8l-2771.1 2081c326,486.8 1238.2,1011.2 1731.3,1373.3 747.4,549 1098.3,1070.9 2147.7,1053.8 3761.7,-61.3 3106.2,1302.6 3106.2,3005.9 697.7,-511.2 265.1,-692.4 2263.2,-1617.4 2962.1,-1371.3 6469.6,-2554.3 9960.9,-2554.3 2418.9,0 1026.7,2021.7 84.5,2898 -244.9,227.7 -280.5,141.8 -375.6,497.6 2701.4,60.2 1641.4,8399.8 1366.5,10777.1 -904.3,7819.1 -2570.5,15009.6 -3518.6,22772.9 -110.2,902.2 -291.9,2007.7 -363,2935.6l-448.8 8573.7c-57.2,316.7 -117.1,450.1 -140.6,732.5 306.4,-224.5 129.5,-60.3 260.6,-515.5 809.5,-2809.6 3578,-4266.9 6321.2,-4738.7 517.7,-89 1020.4,-57.2 1638.6,-108.7 2623.7,-218.7 5580.4,770.6 7274.1,2771.6 495,584.9 794.5,1221.9 1107.4,1900.1 9.5,20.7 20.1,47.1 30.1,66.9l151.9 236.1c0,-837.1 -199.5,-1594.7 -194.7,-2521.8 13.3,-2576.9 -200.1,-5468.4 -467.1,-7876.4 -368.6,-3325.5 -895.1,-6422.8 -1431.1,-9628.8 -532.8,-3186.8 -1110.4,-6369.2 -1565.6,-9494.3 -498.3,-3420.8 -1788.7,-11098.9 -744.9,-14465 207.8,-670.1 584.6,-1399.5 1395.9,-1417.6 -235.7,-882.7 -1649.3,-1165.2 -1649.3,-2716.5 0,-1490.3 5169.4,-212.7 5472.2,-136.3 2532.4,639.3 6400.6,1662 8110.2,3628.9 0,-1703.2 -635.5,-3061.8 3105.2,-3006.8 1022.9,15 1351.3,-478.7 2092.7,-1011.8 331.3,-238.2 562.7,-423.4 885.8,-666.5 342.2,-257.4 674.5,-409 901.4,-747.9l-1773.9 -1330.6c-400.7,-300.8 -890.3,-777.6 -1333.8,-995.5 -220.9,-108.5 17.1,-29.7 -239,-66.3 -1066.9,-152.4 -2364.4,17.5 -3116.6,-457.8 -799.3,-505.1 -521.8,-1378.5 -521.8,-2485.7 -432.2,316.6 -387.3,498.5 -1291.4,1036.9 -1495.5,890.7 -3267.8,1544.1 -4958.5,2026.7 -1093.4,312.2 -9133.6,2655.1 -6978.7,-769.6 892.5,-1418.3 2413.8,-2345.9 3444.4,-3637.8l2627.3 -3096.7c443.3,-541.8 806.2,-1033 1225.3,-1588.2 1031.9,-1367.3 1980.5,-2745.4 2857.4,-4224.8 1248.9,-2107 2548.2,-4233.5 3475.9,-6516.8 543.9,-1338.5 1169.8,-2731.3 1623.4,-4100.6 1525.1,-4603.9 2430.9,-9854 1274.8,-14638.6 -356,-1473.3 -924.2,-2707 -1585.8,-4041.2 -1193,-2406.2 -3141.5,-4472.3 -5276.1,-6074.8 -3378.9,-2536.7 -7985.6,-4435.1 -12736.8,-4435.1 -3846.7,0 -6452.4,297.7 -9786.3,1661.7 -1096,448.4 -2150.8,986.9 -3159.3,1594.5 -525.5,316.6 -934.6,578.5 -1399.2,929.2l-2560.4 2193.4c-236.9,235.6 -364.7,354.2 -557.8,606.4 -1893.8,2473.4 -2894.9,3568.2 -3869.4,6899.5 -330.8,1130.8 -690.3,2740 -690.3,4160.5z"/>
   <path class="fil0" d="M32694.6 105845.3c-43.3,-507.6 92.6,-175.4 -194,-291l194 291z"/>
  </g>
 </g>
</svg>
