<?xml version="1.0" encoding="UTF-8"?>
<!DOCTYPE svg PUBLIC "-//W3C//DTD SVG 1.1//EN" "http://www.w3.org/Graphics/SVG/1.1/DTD/svg11.dtd">
<!-- Creator: CorelDRAW 2021 (64 Bit Versão de avaliação) -->
<svg xmlns="http://www.w3.org/2000/svg" xml:space="preserve" width="75.1322mm" height="176.367mm" version="1.1" style="shape-rendering:geometricPrecision; text-rendering:geometricPrecision; image-rendering:optimizeQuality; fill-rule:evenodd; clip-rule:evenodd"
viewBox="0 0 8514.3 19986.6"
 xmlns:xlink="http://www.w3.org/1999/xlink"
 xmlns:xodm="http://www.corel.com/coreldraw/odm/2003">
 <defs>
  <style type="text/css">
   <![CDATA[
    .fil0 {fill:#0A0405}
   ]]>
  </style>
 </defs>
 <g id="Camada_x0020_1">
  <metadata id="CorelCorpID_0Corel-Layer"/>
  <path class="fil0" d="M3397.7 4397.1c65.2,244.2 326.7,234 391,688.3 39.5,278.8 8.7,805 8.7,1110.5 -1029.8,-239.9 -2249.6,-2604.9 -1068.5,-4186.4 1102,-1475.6 3546.8,-835 3546.8,1628.1 0,817.9 -412.2,1630.9 -928.9,2149 -129.5,129.8 -420.8,391.9 -630,409.3 0,-356.2 -40,-759.7 20.7,-1098.5 82.8,-462 236.3,-427.5 419,-700.3 -183.4,-42.7 -421.4,-222.5 -526.6,-352.8 -98.3,-121.8 -298,-387.9 -312.9,-566.6 -149.3,39.9 -131.6,100.1 -199.9,239.8 -173.4,354.2 -389.5,505.1 -719.4,679.6zm5116.6 2758.1l0 270.7c-5.9,122.5 -35.6,173.9 -159.9,408.8 -186.3,-124.7 -145.2,-160.3 -423.8,-255.7 -494.7,-169.4 -627.5,-158.8 -1141.5,-218.7 -250.2,-29.1 -378.7,31.3 -633.5,34.4 -465.7,5.8 -745.2,121.7 -1017.4,341.7 -219,177.1 -421.4,517.2 -421.4,897.7 0,768.5 275.5,606.3 241.1,1158.4 -69.8,1118.9 -81.2,1318.2 -81.2,2479.2 0,1003 159.9,1881.8 159.9,2918.1 0,1333.8 -187.6,2551.3 -495.7,3781.4 -48.9,195 -93.8,375.2 -135.8,543.7 -82.1,329.3 -41.8,379.2 -168,471.6l-436.4 -1882.1c-98.5,-491.7 -285.6,-1530.8 -284.4,-2034.1 0.9,-387.6 -76.9,-723 -32.9,-1114.7l194 -3283.6c0,-513.5 -32.8,-510.6 -41.3,-798.2 -3.9,-131.4 6.5,-270.9 2.6,-402.3 -8.4,-283.7 -146.9,-791.2 -16.4,-1052.8 289.2,-579.8 248.9,-1331.7 -280.3,-1728.4 -270.2,-202.5 -572.3,-291.3 -1024.4,-294.7 -241.9,-1.8 -362.6,-66.9 -627.8,-30 -1563.1,217.5 -1077,308.1 -1530.1,429.1 -98.4,-146.9 -147.3,-312.8 -159.9,-481.7l0 -183c29.8,-419.4 255,-823.8 479.7,-974.2 254,67.8 77.4,156.5 455.4,384 198,119.1 363.5,174.3 662.2,177.3 545,5.3 1094.9,-1.6 1640.5,-1.6 -381.6,-331.7 -397.3,-174.4 -950.5,-808.4 -687,-787.4 -1048.2,-1735.3 -1048.2,-2909.1 0,-728.7 357.5,-1581.4 849.4,-2068.7 791.3,-784 1327.6,-929.3 2428.5,-929.3 511.4,0 1200.6,300.4 1565.6,592.9 865,693 1192.5,1595 1192.5,2724.9 0,826.7 -475.6,1930.1 -931.6,2466.1 -488.6,574.3 -423.6,451.3 -978.8,860 -45.7,33.7 -55.4,43.1 -88.3,71.6 559.3,0 1121.9,6.3 1680.6,1.7 565.2,-4.7 810.6,-262.3 1037.6,-601.3 254.7,170.5 519.6,612 519.6,1039.3z"/>
 </g>
</svg>
