<?xml version="1.0" encoding="UTF-8"?>
<!DOCTYPE svg PUBLIC "-//W3C//DTD SVG 1.1//EN" "http://www.w3.org/Graphics/SVG/1.1/DTD/svg11.dtd">
<!-- Creator: CorelDRAW 2021 (64 Bit Versão de avaliação) -->
<svg xmlns="http://www.w3.org/2000/svg" xml:space="preserve" width="176.389mm" height="345.369mm" version="1.1" style="shape-rendering:geometricPrecision; text-rendering:geometricPrecision; image-rendering:optimizeQuality; fill-rule:evenodd; clip-rule:evenodd"
viewBox="0 0 176388.8 345369.4"
 xmlns:xlink="http://www.w3.org/1999/xlink"
 xmlns:xodm="http://www.corel.com/coreldraw/odm/2003">
 <defs>
  <style type="text/css">
   <![CDATA[
    .fil0 {fill:black}
   ]]>
  </style>
 </defs>
 <g id="Camada_x0020_1">
  <metadata id="CorelCorpID_0Corel-Layer"/>
  <path class="fil0" d="M66675 237419.4c924.1,-246.8 7917.2,-5291.7 12700,-5291.7l912.6 4731.9c244.6,1145.2 368.6,1189.9 624.6,2197.6 228.8,901.1 336.7,1994.6 498.1,2676.9 238.3,1006.8 408.6,1222.7 629.3,2192.9 236.2,1038.3 306.4,1783.1 510.4,2664.6l5997.2 24341.7 4229.6 -19406.5c788.6,-3207.5 1415.7,-6477.1 2246.5,-9748 204.8,-806.6 255.1,-1551.5 433.7,-2388.4l1909.6 -7262.7c1421.3,752.1 3888.4,1175.5 9529.2,4229.1 1220.2,660.6 1595.2,1121.1 2818,1768.2 -1597.1,2385 -5638.6,10924.3 -7408.3,14463.9 -554.6,1109.3 -2209.8,3966.6 -2469.4,4938.8 2007.1,-467.6 5198,-2343.3 7225.9,-3357.3 917.2,-458.6 1519.4,-690.5 2377.9,-1149.9 1858.5,-994.6 8139.1,-4278.3 9798.9,-4665 1218.4,2302.7 2169.7,3954 3282.2,6595.6 401.7,953.9 997.4,2941 1207.7,3731.2 372.9,1401.4 801.8,2987.4 801.8,4489.9l-13609.5 4382.2c-1985.7,729.2 -2861.6,1262.2 -4734.9,1262.2 442.8,1658.7 854.8,1095.9 3882.8,2114.4l11637.4 3884.8c1079.7,363 1279.6,604.4 2471.4,703.6l-4304 11571c-632,1099.9 -1751.5,2142.7 -2046,3245.7 -1798.9,-1204.7 -15003.8,-7982.7 -16580.5,-8113.9l7892.5 16162.2c-2366.4,3095.1 -11850.8,6157.8 -14948.1,6415.6 -1582.9,-2991.6 -4399.8,-16210.1 -6350,-17638.9l-5644.4 17991.6c-3664.5,-853.7 -4488.4,-791.3 -8269.4,-2313.9 -2794.5,-1125.3 -4813.6,-2392.6 -7252.8,-3683.3l8466.6 -16933.3c-1398.7,31.1 -1420.7,292.2 -2388.7,786.2l-12688.1 6361.9c-41.7,21.2 -1186.4,564.9 -1195.5,568.5 -984.6,397.6 491.9,242.6 -1366.6,397.3 -331,-1239.9 -229,-576.1 -890.9,-1578.5l-2756.8 -5004.3c-1859.9,-3873.7 -2389.9,-7230.2 -2702.2,-7881.1l14305.4 -4744.6c1778.5,-509.9 3831.6,-712.2 4744.5,-1958.2l-14294.7 -4755.2c-1718.2,-594.8 -3357.2,-1186.9 -5108,-1594.8 34,-1528.1 85,-931.4 389.3,-2080.1 894.8,-3377.5 230.5,-2028.7 1974,-6492.7 579.9,-1484.8 1041.7,-2591 1798.3,-3846.1l2188.4 -3456.1 18343.4 9174.3c-110,-1332.3 -6888.4,-14380.1 -8818.4,-18699.3zm109713.8 -31365.9l0 4907.6c0,4350.9 -761.5,7520.7 -1080.6,11619.4 -97.5,1252.7 -421.8,2074.6 -683.3,3197.2 -781.8,-572.7 -4516.8,-7359.7 -10436.6,-11435.5l-14394.6 -7477.7c-1375.7,-529.6 -3108.3,-618.3 -4709.3,-937.2l-4314.6 -306.5c-2888.8,-93.6 -6768.2,-928.4 -9877.8,-1021.3 -1859.5,-55.5 -3808,78.7 -5667.5,23.1l-28210.7 -717.1c0,10803.4 -1236.6,6811.9 6623,9252.1 866.6,269.1 1074.9,625.7 2196.5,625.7 436.1,0 2326,-3136.9 6258.2,-1681.5 2637.5,976.2 2914,3283.8 2914,5914.8l7478.2 4516.3c1130.6,752 1303.8,724.2 2046.8,1833.7 2759.1,-1459.9 5666,-2833 8466.7,-4233.3 1721.2,-860.6 6675.6,-3731.5 8466.6,-3880.6 -334,631.2 -432.3,989 -770.6,1698.9l-2522 4886.3c-4148.8,8297.7 -5980.6,9161.6 -3136.8,12544.2 803.2,955.4 3303,4778.5 3607.2,5917.9 2478.5,0 2740.9,-113.4 4373.2,918.5 2402.5,1518.6 3038.3,7052.3 -139.9,7900.9 128.5,1543.7 647.7,2934.9 1065.1,4226.6 2356.7,7293.3 -1261.9,7916 5287.3,9882.2 2490.4,747.6 12927.8,3866.8 15167.1,4941.2 -1080.1,1474.2 -16522.5,5125 -18474.1,6573.2 -587,435.6 -322,73.6 -642.7,768.4 -464.2,1006.1 -205.9,2076.4 -379.3,3148.5 -453.3,2802.7 -1391.1,5140.4 -2023.4,7854.4 755.4,1128 1763.9,1403.7 1763.9,3175 0,3755.4 -1676.8,5644.4 -5644.4,5644.4 -5369.6,10147.9 -6842.3,5815.4 -3052.2,13282.7 825.2,1625.8 1415.2,2848.4 2229.1,4473.7l2344.3 4711.3c812,1468.1 1862.3,2963.1 2006.6,4696.2l-18344.5 -9172.2c-443,296.6 -583.4,396.1 -1023.8,740 -57.8,45.2 -135.8,114 -193.5,159.3l-4370.3 3038c-5584.4,3154.3 -2154.8,1278.1 -4146.9,5025.4 -615.1,1157.1 -2094.9,2326.1 -3671,2326.1 -2455.9,0 -2488.5,-359.2 -4586.1,-1763.8 -70.5,48.9 -174.3,104.9 -221.3,131.3l-3694.4 1244.7c-1325.2,353.3 -2611.9,542.9 -4061.1,877.8 -5488.2,1268 -3248.5,-154 -5076.1,4801.6l-3726.9 11089.8c-519.6,1379.3 -618.7,2681.1 -1564.7,3374.2l-1584.7 -4765.3c-1125.5,-3375.5 -4169.7,-11014.1 -4412.5,-13931.9 -3453.4,0 -10492.6,-1654.3 -12700,-2822.2 -2536.2,3787.5 -9172.2,3558.3 -9172.2,-3880.6 -2907.1,-1538.2 -5427.7,-3492.9 -8113.9,-5291.7 -1896.2,441.8 -3199.7,1362.3 -4651.3,2051.5l-13340.4 6768c43.9,-1966.3 -12.4,-849 662.7,-2159.6l5984.1 -12007.5c294.3,-635.3 1624.9,-3114 1669.5,-3577.9 126.9,-1320.9 -4942.1,-7049.8 -5494,-9418.9 -2393.9,0 -2383.5,355.3 -3862.9,-723.2 -846.6,-617.1 -1482.6,-1157.6 -1968.2,-2274.9 -804.1,-1850.5 -219.5,-5241.9 1950.5,-5821.3 -825.9,-1561 -1155.4,-3343.9 -1625,-5430.6l-845 -4446.6c-115.7,-1023.9 -313.4,-1832.4 -1187.6,-2340.2 -2423.4,-1407.3 -15882.2,-4388.2 -17156.3,-6127.1l11100.8 -3715.9c1361,-453.8 2178,-623.4 3498.7,-1087.4 1566.7,-550.5 2711.1,-418.6 3337.3,-1601.6l1564.7 -8313c203.3,-1012.3 676.2,-2410 959.6,-3626.5 -1568.1,-2341.7 -3233.6,-2785.2 -1971.9,-6541.6 821.3,-2445.4 3906.8,-3733.5 6205.3,-2630.7 922.5,-3455 4086.2,-6671.2 5997.2,-9525 -550.4,-2362.4 -6474.3,-13520.7 -8466.7,-17286.1 1874.5,156 369.2,-3 1364.3,399.6l16274.6 8067.1 7062.5 -4579.2c1836.1,-1037.6 553.5,-1955.4 1556.2,-4088.3 454.6,-967.1 1906.4,-2621.4 3023,-2621.4 2597.8,0 3988.9,-345.3 5291.6,2116.7 1076.7,-516.6 3714.7,-1150.1 5196.5,-1506.3 1429.9,-343.8 3554.4,-810.7 5386.9,-963.2l0 -7761.1 -23285.7 350.5c-2386.8,-25.8 -3191.1,343.4 -5275.3,369.1 -1750.8,21.7 -3575,-77.6 -5317.2,-25.6 -3109.6,92.9 -6989,927.7 -9877.8,1021.3 -5256.6,170.3 -10402.3,1138.1 -15008,3726.3 -836.8,470.3 -727.9,399.2 -1659.7,809.7 -2941.4,1295.8 -5975.2,3346.5 -8291.7,5466.7l-6709.1 7049.2c-406.1,610.8 -806.8,1125.2 -1153.1,1669.2 -793,1245.4 210.9,524.1 -1033.5,1435.8 -308.1,-1322.2 -603.5,-1959.4 -697.9,-3535.4 -236,-3941.5 -1066,-7023.6 -1066,-11281.2l0 -3010.8c22.1,-5009.3 227.7,-12866.5 1762,-15335.6l6699.4 -8822.8c2661.1,-3696.3 5738.2,-6932.1 8326,-10723.9 736.8,-1079.6 1031.7,-1144.5 1767.2,-2113.4 1080,-1422.7 3630.2,-5819.9 5081.5,-6207.4 608.5,1268.2 -56.8,1993.9 -534.9,3343.5 -1674.2,4726.2 -7642.4,24173.2 -2640.1,24173.2l9525 0c3571,0 5817,-613.2 9172.7,-705.1l8240.1 -1284.9c1236.9,-305.2 642.1,-272.1 2006.8,-462.6 1295.6,-181 948.2,-51.7 2066.5,-403 1179,-370.2 2394.5,-739.6 3795.1,-1143.8 2362.5,-681.8 4868.3,-1581.9 6943.9,-2581.1l5645.2 -3174.2c5874.5,-3773.3 11518.6,-11222.2 11518.6,-18467.6 0,-8440.9 959,-7070.7 -1979.4,-9309.5 -544.8,-415.1 -1548.4,-1615.9 -1548.4,-2332.1 0,-3778.7 -11.8,-4477.1 3527.8,-6350l0 -9877.8c-4873.2,-405.5 -4811.1,-8771.9 0,-9172.2l0 -10583.3c-4821.8,-1123.4 -4814.7,-8403.4 0,-9525l0 -10230.6c-4807.9,-1120.1 -4815.2,-8403.2 0,-9525l0 -9525c-1550.3,-820.3 -3527.8,-1539.3 -3527.8,-3880.6 0,-3634.2 205.9,-4239.5 3527.8,-5997.2l0 -9525 -19431.2 -2793.8c-1604,-331 -3603,-350 -5008.2,-636.3l-9482.5 -1453.5c-2040.6,-200.6 -3065.5,-57.7 -4530.9,-760.8 720.2,-1075.5 89.1,-554 1138.7,-922.6 45.9,-16.2 149.3,-35 197.8,-50.3 4040.7,-1273.7 7565.2,-2638 11682.8,-3646.7 3856,-944.7 10567.7,-4120.2 14144.6,-4199.9 -849,-1158.7 -1027.3,-820.3 -2591.6,-1288.9l-13109.2 -4529.8c-2011.7,-659.9 -3273,-1540.7 -5465.9,-1589.6l0 -705.5c7570.4,-1763.7 15519,-4021.5 23187.2,-5388.7 624.1,-111.3 1317.5,-393.4 1917.9,-573.8 1139,-342.2 951.3,-170.7 1653.1,-280.5 1392.3,-217.7 1818.2,-562.3 3547.4,-845.9 1854.7,-304.1 2113.5,-430.5 2646.7,-2292.2l2296.2 -7581.5c954.1,-3838.7 5090.4,-15898 5320.9,-18668l1411.2 0c112.8,1355.5 702,2589.9 1059.5,3879.3l5517 18824.7c820,2778.1 612.4,5333.4 3687.3,5837.7 3061.9,502.2 4655.5,1328.4 7426.4,1745.5 1216.3,183.1 1179.3,82.7 2130,356.3l3372.5 821.2c464.6,119 981.2,324.5 1659.4,478.3l15717.3 4393.1c-1975.1,44 -13910.1,4527.8 -16230,5289.4l-5289.5 1766.2c2145,1490.4 10517.9,3401.1 13319.1,4319.7l9930.6 3121.4c1384,364.1 2006.5,896.1 3561.4,1025.5 -351.4,1316.3 -60.6,918.3 -1574.2,1248l-20698.7 2937.4c-2220.7,220.3 -2726,189.9 -4732.8,558.8 -3151.3,579.2 -7463.7,1253 -10741.5,1253l0 9172.3c0,1786.1 3880.6,542.9 3880.6,5644.4 0,1845.1 -496.2,2516.8 -1474.4,3464.5 -783.8,759.5 -2406.2,1059.4 -2406.2,2180l0 8113.8c0,1063.8 449.4,825.6 1215.8,1253.7 3254.6,1818.1 3632.8,6752.4 210.7,8639.5 -454.8,250.8 -941.5,433.6 -1426.5,690.2l0 9877.8c5044.7,419.7 5420.9,8262 0,9525l0 10230.5c1064.8,563.4 2140.7,677.6 2908,1678.2 2065.5,2693.8 716.3,7545.2 -2908,7846.8l0 9877.8c2654,618.3 3880.6,2019.2 3880.6,5291.6 0,3764.7 -3880.6,3694.1 -3880.6,5291.7l0 7408.3c0,5068.3 3328,11532.4 7005.8,14866.5 7752.9,7028.4 14860.3,8871.3 24970.3,11365.8 4183.6,1032.3 13143.7,1990 17412.8,1990l9525 0c4523,0 234.6,-14701.5 -598.4,-17746.1 -538.6,-1968.5 -3246.4,-8374.7 -2576.6,-9770.6 962.1,256.9 2938.5,3014.5 3676.7,4084.4l9872.2 13058.4c724.8,963.5 1031.8,1042 1769.5,2111 587,850.6 962.4,1581.5 1558.3,2322.3 748,929.8 1009.6,1016.1 1752.1,2128.4 2377.4,3561.8 3336.4,2749.9 4098.2,7543.5 729.8,4591.8 882.6,6804.5 909.1,10058.3z"/>
 </g>
</svg>
